<svg width="30" height="18" viewBox="0 0 30 18" fill="none" xmlns="http://www.w3.org/2000/svg">
<path d="M12.5747 17.168C12.4147 17.168 12.2627 17.12 12.1187 17.024C11.9907 16.928 11.9027 16.8 11.8547 16.64L9.88669 10.928L3.91069 12.248L2.15869 16.664C2.11069 16.808 2.02269 16.92 1.89469 17C1.76669 17.096 1.62269 17.144 1.46269 17.144C1.25469 17.144 1.07869 17.072 0.934687 16.928C0.806687 16.784 0.742687 16.6 0.742687 16.376C0.742687 16.28 0.774687 16.144 0.838687 15.968L2.15869 12.584C2.01469 12.632 1.87069 12.656 1.72669 12.656C1.53469 12.64 1.37469 12.568 1.24669 12.44C1.11869 12.296 1.05469 12.12 1.05469 11.912C1.05469 11.736 1.11069 11.576 1.22269 11.432C1.33469 11.288 1.47069 11.2 1.63069 11.168L2.83069 10.904L6.67069 1.088C6.73469 0.943999 6.83869 0.831999 6.98269 0.751999C7.12669 0.655999 7.27069 0.607999 7.41469 0.607999C7.57469 0.607999 7.71869 0.655999 7.84669 0.751999C7.97469 0.831999 8.07069 0.951999 8.13469 1.112L13.1987 15.848C13.2947 16.136 13.3427 16.328 13.3427 16.424C13.3427 16.616 13.2707 16.792 13.1267 16.952C12.9827 17.096 12.7987 17.168 12.5747 17.168ZM9.35869 9.488L7.31869 3.512L4.55869 10.52L9.35869 9.488ZM28.44 17.168C28.28 17.168 28.128 17.12 27.984 17.024C27.856 16.928 27.768 16.8 27.72 16.64L25.752 10.928L19.776 12.248L18.024 16.664C17.976 16.808 17.888 16.92 17.76 17C17.632 17.096 17.488 17.144 17.328 17.144C17.12 17.144 16.944 17.072 16.8 16.928C16.672 16.784 16.608 16.6 16.608 16.376C16.608 16.28 16.64 16.144 16.704 15.968L18.024 12.584C17.88 12.632 17.736 12.656 17.592 12.656C17.4 12.64 17.24 12.568 17.112 12.44C16.984 12.296 16.92 12.12 16.92 11.912C16.92 11.736 16.976 11.576 17.088 11.432C17.2 11.288 17.336 11.2 17.496 11.168L18.696 10.904L22.536 1.088C22.6 0.943999 22.704 0.831999 22.848 0.751999C22.992 0.655999 23.136 0.607999 23.28 0.607999C23.44 0.607999 23.584 0.655999 23.712 0.751999C23.84 0.831999 23.936 0.951999 24 1.112L29.064 15.848C29.16 16.136 29.208 16.328 29.208 16.424C29.208 16.616 29.136 16.792 28.992 16.952C28.848 17.096 28.664 17.168 28.44 17.168ZM25.224 9.488L23.184 3.512L20.424 10.52L25.224 9.488Z" fill="url(#paint0_angular)"/>
<defs>
<radialGradient id="paint0_angular" cx="0" cy="0" r="1" gradientUnits="userSpaceOnUse" gradientTransform="translate(15 9) rotate(90) scale(25)">
<stop offset="0.16399" stop-color="#C1CE2D"/>
<stop offset="0.649501" stop-color="#0FCACA" stop-opacity="0.89"/>
</radialGradient>
</defs>
</svg>
