<svg width="253" height="27" viewBox="0 0 253 27" fill="none" xmlns="http://www.w3.org/2000/svg">
<path d="M3.61133 26L5.29883 20.4102H14.2637L15.916 26H19.0801L11.7676 2.26953H7.9707L0.587891 26H3.61133ZM8.42773 10.0742C8.56836 9.62891 8.82617 8.66797 9.20117 7.19141C9.50586 6.08984 9.7168 5.30469 9.83398 4.83594C9.92773 5.21094 10.0918 5.84375 10.3262 6.73438C10.748 8.39844 11.0293 9.47656 11.1699 9.96875L13.5605 18.0898H6.00195L8.42773 10.0742ZM98.3574 26L100.045 20.4102H109.01L110.662 26H113.826L106.514 2.26953H102.717L95.334 26H98.3574ZM103.174 10.0742C103.314 9.62891 103.572 8.66797 103.947 7.19141C104.252 6.08984 104.463 5.30469 104.58 4.83594C104.674 5.21094 104.838 5.84375 105.072 6.73438C105.494 8.39844 105.775 9.47656 105.916 9.96875L108.307 18.0898H100.748L103.174 10.0742Z" fill="#DF5A10"/>
<path d="M31.5605 21.1836C31.5605 19.3789 30.6348 17.9258 28.7832 16.8242C28.4082 16.6133 27.8105 16.3086 26.9902 15.9102C25.4902 15.207 24.541 14.5859 24.1426 14.0469C23.8613 13.6484 23.7207 13.2148 23.7207 12.7461C23.7207 11.6211 24.2598 10.8594 25.3379 10.4609C25.6895 10.3438 26.0527 10.2852 26.4277 10.2852C27.7637 10.2852 28.7949 10.8125 29.5215 11.8672C29.5684 11.9375 29.6152 12.0078 29.6621 12.0781L31.6309 10.9531C30.7637 9.24219 29.252 8.28125 27.0957 8.07031C26.8613 8.04688 26.627 8.03516 26.3926 8.03516C24.5645 8.03516 23.0996 8.62109 21.998 9.79297C21.2246 10.6367 20.8379 11.6211 20.8379 12.7461C20.8379 14.5977 21.752 16.0625 23.5801 17.1406C23.9551 17.375 24.541 17.6797 25.3379 18.0547C26.8613 18.7812 27.8223 19.4141 28.2207 19.9531C28.5254 20.375 28.6777 20.8438 28.6777 21.3594C28.6777 22.625 28.0801 23.4688 26.8848 23.8906C26.5098 24.0078 26.1113 24.0664 25.6895 24.0664C24.2129 24.043 22.7715 23.5625 21.3652 22.625L20.2754 24.4883C21.916 25.7539 23.7441 26.3867 25.7598 26.3867C27.7988 26.3867 29.3691 25.707 30.4707 24.3477C31.1973 23.457 31.5605 22.4023 31.5605 21.1836ZM49.7363 24.1016C48.916 24.1719 48.4473 23.8672 48.3301 23.1875C48.2832 22.9766 48.2598 22.7188 48.2598 22.4141V14.0469C48.2598 11.1875 47.2871 9.32422 45.3418 8.45703C44.6855 8.17578 43.959 8.03516 43.1621 8.03516C41.123 8.05859 39.5176 8.99609 38.3457 10.8477L38.3809 0.511719H35.4629V26H38.3809V16.2617C38.3809 13.5898 39.1309 11.7852 40.6309 10.8477C41.1699 10.5195 41.7441 10.3555 42.3535 10.3555C43.8535 10.3555 44.8027 11.1523 45.2012 12.7461C45.3184 13.2383 45.377 13.7539 45.377 14.293V22.625C45.4238 25.5312 46.9121 26.7383 49.8418 26.2461L49.7363 24.1016ZM59.6152 23.9961C57.6465 23.9961 56.3105 22.8828 55.6074 20.6562C55.3027 19.6719 55.1504 18.5352 55.1504 17.2461C55.1504 14.1992 55.9355 12.1367 57.5059 11.0586C58.1621 10.6367 58.8887 10.4258 59.6855 10.4258C61.6777 10.4258 63.0137 11.5859 63.6934 13.9062C63.9746 14.8672 64.1152 15.9805 64.1152 17.2461C64.1152 20.4102 63.2832 22.4844 61.6191 23.4688C61.0098 23.8203 60.3418 23.9961 59.6152 23.9961ZM59.7559 8.03516C56.8965 8.03516 54.7871 9.25391 53.4277 11.6914C52.584 13.2383 52.1621 15.0898 52.1621 17.2461C52.1621 21.2773 53.3574 24.0078 55.748 25.4375C56.8262 26.0703 58.0801 26.3867 59.5098 26.3867C62.5332 26.3867 64.6895 25.0977 65.9785 22.5195C66.7285 21.043 67.1035 19.2852 67.1035 17.2461C67.1035 13.2617 65.9551 10.543 63.6582 9.08984C62.5566 8.38672 61.2559 8.03516 59.7559 8.03516ZM83.3809 26.3867C83.4277 26.3867 83.4629 26.3867 83.4863 26.3867C83.5332 26.3867 83.5801 26.3867 83.627 26.3867C83.6973 26.3867 83.7441 26.375 83.7676 26.3516C83.791 26.3516 83.8262 26.3516 83.873 26.3516C83.9434 26.3516 83.9902 26.3398 84.0137 26.3164C84.0371 26.3164 84.084 26.3047 84.1543 26.2812C84.2246 26.2812 84.2715 26.2812 84.2949 26.2812C84.3184 26.2812 84.3652 26.2812 84.4355 26.2812L84.5762 26.2461L84.4355 24.1016C84.2949 24.125 84.1543 24.1367 84.0137 24.1367C83.5684 24.0898 83.1699 23.7617 82.8184 23.1523L78.8105 16.0859L83.873 8.42188H80.9199L76.9121 14.6094L73.8184 14.6445V0.511719H70.9004V26H73.8184V16.9648H76.3848L80.4629 24.2422C81.1426 25.4375 81.8926 26.1289 82.7129 26.3164C82.9238 26.3633 83.1465 26.3867 83.3809 26.3867ZM130.771 24.1016C129.975 24.1719 129.506 23.9141 129.365 23.3281C129.318 23.0703 129.295 22.7656 129.295 22.4141V13.9766C129.295 11.2109 128.346 9.39453 126.447 8.52734C125.768 8.19922 125.006 8.03516 124.162 8.03516C122.029 8.05859 120.412 9.07812 119.311 11.0938L119.24 8.42188H116.498V26H119.381V16.3672C119.381 13.6719 120.131 11.8438 121.631 10.8828C122.193 10.5312 122.791 10.3555 123.424 10.3555C124.877 10.3555 125.814 11.1406 126.236 12.7109C126.354 13.2031 126.412 13.7422 126.412 14.3281V22.625C126.459 25.0859 127.525 26.3281 129.611 26.3516C130.057 26.3516 130.479 26.3047 130.877 26.2109L130.771 24.1016ZM148.104 26.3867C148.479 26.3867 148.947 26.3281 149.51 26.2109L149.404 24.0664C149.264 24.0898 149.088 24.1016 148.877 24.1016C148.057 24.1016 147.576 23.6797 147.436 22.8359C147.389 22.5547 147.365 22.2383 147.365 21.8867V8.42188H144.447V18.125C144.447 20.7734 143.709 22.5781 142.232 23.5391C141.646 23.8906 141.025 24.0664 140.369 24.0664C138.752 24.0664 137.768 23.2109 137.416 21.5C137.322 21.0547 137.275 20.5977 137.275 20.1289V8.42188H134.357V20.4453C134.357 23.375 135.436 25.2148 137.592 25.9648C138.248 26.1992 138.963 26.3164 139.736 26.3164C141.729 26.3164 143.311 25.4141 144.482 23.6094C144.623 23.4219 144.74 23.2344 144.834 23.0469C144.975 25.0625 145.865 26.1641 147.506 26.3516C147.693 26.375 147.893 26.3867 148.104 26.3867ZM174.717 13.9766C174.717 11.2578 173.814 9.44141 172.01 8.52734C171.33 8.19922 170.592 8.03516 169.795 8.03516C167.92 8.03516 166.432 8.91406 165.33 10.6719C165.143 10.9531 164.979 11.2461 164.838 11.5508C164.205 9.60547 162.986 8.46875 161.182 8.14062C160.83 8.07031 160.49 8.03516 160.162 8.03516C158.217 8.03516 156.658 8.94922 155.486 10.7773C155.439 10.8711 155.393 10.9531 155.346 11.0234L155.275 8.42188H152.533V26H155.416V16.332C155.416 13.5898 156.178 11.7617 157.701 10.8477C158.24 10.5195 158.803 10.3555 159.389 10.3555C160.818 10.3555 161.732 11.1406 162.131 12.7109C162.248 13.2031 162.307 13.7305 162.307 14.293V26H165.189V16.332C165.189 13.5664 165.939 11.7266 167.439 10.8125C167.955 10.5078 168.494 10.3555 169.057 10.3555C170.322 10.3555 171.166 11.0703 171.588 12.5C171.752 13.0391 171.834 13.6367 171.834 14.293V22.625C171.881 25.5312 173.381 26.7383 176.334 26.2461L176.193 24.1016C175.373 24.1719 174.904 23.8672 174.787 23.1875C174.74 22.9766 174.717 22.7188 174.717 22.4141V13.9766ZM191.135 26.3867C191.58 26.3867 192.049 26.3281 192.541 26.2109L192.436 24.0664C192.295 24.0898 192.119 24.1016 191.908 24.1016C191.088 24.1016 190.607 23.6797 190.467 22.8359C190.42 22.5547 190.396 22.2383 190.396 21.8867V13.6602C190.396 10.9883 189.342 9.25391 187.232 8.45703C186.506 8.19922 185.709 8.07031 184.842 8.07031C182.732 8.09375 180.705 8.67969 178.76 9.82812L179.814 11.9727C181.479 10.9883 182.979 10.4961 184.314 10.4961C186.213 10.4961 187.256 11.4102 187.443 13.2383C187.467 13.4258 187.479 13.6133 187.479 13.8008V15.7344C186.588 15.6875 185.943 15.6641 185.545 15.6641C182.381 15.6641 180.189 16.543 178.971 18.3008C178.408 19.1211 178.127 20.0352 178.127 21.043C178.127 23.293 178.994 24.875 180.729 25.7891C181.502 26.1875 182.369 26.3867 183.33 26.3867C184.994 26.3867 186.365 25.7656 187.443 24.5234C187.631 24.2891 187.795 24.0547 187.936 23.8203C188.311 25.5078 189.377 26.3633 191.135 26.3867ZM183.963 23.9961C182.416 23.9961 181.502 23.3047 181.221 21.9219C181.15 21.6406 181.115 21.3477 181.115 21.043C181.162 18.8398 182.674 17.7266 185.65 17.7031C186.143 17.7031 186.752 17.7266 187.479 17.7734V19.8477C187.479 21.8398 186.752 23.1406 185.299 23.75C184.877 23.9141 184.432 23.9961 183.963 23.9961ZM209.697 24.1016C208.9 24.1719 208.432 23.9141 208.291 23.3281C208.244 23.0703 208.221 22.7656 208.221 22.4141V13.9766C208.221 11.2109 207.271 9.39453 205.373 8.52734C204.693 8.19922 203.932 8.03516 203.088 8.03516C200.955 8.05859 199.338 9.07812 198.236 11.0938L198.166 8.42188H195.424V26H198.307V16.3672C198.307 13.6719 199.057 11.8438 200.557 10.8828C201.119 10.5312 201.717 10.3555 202.35 10.3555C203.803 10.3555 204.74 11.1406 205.162 12.7109C205.279 13.2031 205.338 13.7422 205.338 14.3281V22.625C205.385 25.0859 206.451 26.3281 208.537 26.3516C208.982 26.3516 209.404 26.3047 209.803 26.2109L209.697 24.1016ZM218.943 24.0312C217.537 24.0312 216.471 23.2109 215.744 21.5703C215.252 20.4688 215.006 19.168 215.006 17.668C215.006 14.457 215.826 12.2773 217.467 11.1289C218.146 10.6602 218.92 10.4258 219.787 10.4258C220.865 10.4258 221.885 10.6602 222.846 11.1289V18.793C222.846 21.3242 222.061 22.9648 220.49 23.7148C219.998 23.9258 219.482 24.0312 218.943 24.0312ZM222.846 0.511719V8.5625C221.814 8.21094 220.76 8.03516 219.682 8.03516C216.869 8.03516 214.771 9.32422 213.389 11.9023C212.475 13.5898 212.018 15.582 212.018 17.8789C212.018 21.1133 212.896 23.5039 214.654 25.0508C215.709 25.9414 216.916 26.3867 218.275 26.3867C220.314 26.3633 221.908 25.4492 223.057 23.6445C223.361 25.8242 224.756 26.6914 227.24 26.2461L227.135 24.1016C226.385 24.1719 225.939 23.9023 225.799 23.293C225.752 23.0586 225.729 22.7773 225.729 22.4492V0.511719H222.846ZM234.482 26.3516C235.256 26.3516 236.064 26.2109 236.908 25.9297L236.311 23.75C235.865 23.9141 235.467 23.9961 235.115 23.9961C234.154 23.9492 233.662 23.2812 233.639 21.9922V0.511719H230.756V22.2734C230.756 24.5938 231.693 25.9297 233.568 26.2812C233.873 26.3281 234.178 26.3516 234.482 26.3516ZM250.795 26.3867C251.24 26.3867 251.709 26.3281 252.201 26.2109L252.096 24.0664C251.955 24.0898 251.779 24.1016 251.568 24.1016C250.748 24.1016 250.268 23.6797 250.127 22.8359C250.08 22.5547 250.057 22.2383 250.057 21.8867V13.6602C250.057 10.9883 249.002 9.25391 246.893 8.45703C246.166 8.19922 245.369 8.07031 244.502 8.07031C242.393 8.09375 240.365 8.67969 238.42 9.82812L239.475 11.9727C241.139 10.9883 242.639 10.4961 243.975 10.4961C245.873 10.4961 246.916 11.4102 247.104 13.2383C247.127 13.4258 247.139 13.6133 247.139 13.8008V15.7344C246.248 15.6875 245.604 15.6641 245.205 15.6641C242.041 15.6641 239.85 16.543 238.631 18.3008C238.068 19.1211 237.787 20.0352 237.787 21.043C237.787 23.293 238.654 24.875 240.389 25.7891C241.162 26.1875 242.029 26.3867 242.99 26.3867C244.654 26.3867 246.025 25.7656 247.104 24.5234C247.291 24.2891 247.455 24.0547 247.596 23.8203C247.971 25.5078 249.037 26.3633 250.795 26.3867ZM243.623 23.9961C242.076 23.9961 241.162 23.3047 240.881 21.9219C240.811 21.6406 240.775 21.3477 240.775 21.043C240.822 18.8398 242.334 17.7266 245.311 17.7031C245.803 17.7031 246.412 17.7266 247.139 17.7734V19.8477C247.139 21.8398 246.412 23.1406 244.959 23.75C244.537 23.9141 244.092 23.9961 243.623 23.9961Z" fill="#336298"/>
</svg>
