<svg width="100" height="100" viewBox="0 0 100 100" fill="none" xmlns="http://www.w3.org/2000/svg">
<circle cx="50" cy="50" r="49.5" fill="url(#paint0_linear)" stroke="white"/>
<path d="M45.6494 66.336C45.3294 66.336 45.0254 66.24 44.7374 66.048C44.4814 65.856 44.3054 65.6 44.2094 65.28L40.2734 53.856L28.3214 56.496L24.8174 65.328C24.7214 65.616 24.5454 65.84 24.2894 66C24.0334 66.192 23.7454 66.288 23.4254 66.288C23.0094 66.288 22.6574 66.144 22.3694 65.856C22.1134 65.568 21.9854 65.2 21.9854 64.752C21.9854 64.56 22.0494 64.288 22.1774 63.936L24.8174 57.168C24.5294 57.264 24.2414 57.312 23.9534 57.312C23.5694 57.28 23.2494 57.136 22.9934 56.88C22.7374 56.592 22.6094 56.24 22.6094 55.824C22.6094 55.472 22.7214 55.152 22.9454 54.864C23.1694 54.576 23.4414 54.4 23.7614 54.336L26.1614 53.808L33.8414 34.176C33.9694 33.888 34.1774 33.664 34.4654 33.504C34.7534 33.312 35.0414 33.216 35.3294 33.216C35.6494 33.216 35.9374 33.312 36.1934 33.504C36.4494 33.664 36.6414 33.904 36.7694 34.224L46.8974 63.696C47.0894 64.272 47.1854 64.656 47.1854 64.848C47.1854 65.232 47.0414 65.584 46.7534 65.904C46.4654 66.192 46.0974 66.336 45.6494 66.336ZM39.2174 50.976L35.1374 39.024L29.6174 53.04L39.2174 50.976ZM77.38 66.336C77.06 66.336 76.756 66.24 76.468 66.048C76.212 65.856 76.036 65.6 75.94 65.28L72.004 53.856L60.052 56.496L56.548 65.328C56.452 65.616 56.276 65.84 56.02 66C55.764 66.192 55.476 66.288 55.156 66.288C54.74 66.288 54.388 66.144 54.1 65.856C53.844 65.568 53.716 65.2 53.716 64.752C53.716 64.56 53.78 64.288 53.908 63.936L56.548 57.168C56.26 57.264 55.972 57.312 55.684 57.312C55.3 57.28 54.98 57.136 54.724 56.88C54.468 56.592 54.34 56.24 54.34 55.824C54.34 55.472 54.452 55.152 54.676 54.864C54.9 54.576 55.172 54.4 55.492 54.336L57.892 53.808L65.572 34.176C65.7 33.888 65.908 33.664 66.196 33.504C66.484 33.312 66.772 33.216 67.06 33.216C67.38 33.216 67.668 33.312 67.924 33.504C68.18 33.664 68.372 33.904 68.5 34.224L78.628 63.696C78.82 64.272 78.916 64.656 78.916 64.848C78.916 65.232 78.772 65.584 78.484 65.904C78.196 66.192 77.828 66.336 77.38 66.336ZM70.948 50.976L66.868 39.024L61.348 53.04L70.948 50.976Z" fill="url(#paint1_angular)"/>
<defs>
<linearGradient id="paint0_linear" x1="50" y1="0" x2="50" y2="100" gradientUnits="userSpaceOnUse">
<stop stop-color="#DCC998"/>
<stop offset="0.48" stop-color="#B3D8C2" stop-opacity="0.56"/>
<stop offset="1" stop-color="#BC314A" stop-opacity="0"/>
</linearGradient>
<radialGradient id="paint1_angular" cx="0" cy="0" r="1" gradientUnits="userSpaceOnUse" gradientTransform="translate(50.5 50.5) rotate(-178.995) scale(28.5044)">
<stop offset="0.149437" stop-color="#AE5809"/>
<stop offset="0.658843" stop-color="#149696" stop-opacity="0.89"/>
</radialGradient>
</defs>
</svg>
