<svg width="66" height="332" viewBox="0 0 66 332" fill="none" xmlns="http://www.w3.org/2000/svg">
<g filter="url(#filter0_b)">
<g clip-path="url(#clip0)">
<g filter="url(#filter1_d)">
<path d="M15.4571 302.483C14.6594 303.18 14.0036 304.122 13.4898 305.307C12.952 306.492 12.6767 307.853 12.6638 309.389C12.645 311.645 13.063 313.301 13.9181 314.358C14.7491 315.414 15.8963 315.962 17.3597 316.004C18.3673 316.033 19.1611 315.804 19.741 315.316C20.321 314.829 20.8072 314.075 21.1997 313.054C21.5684 312.008 21.9395 310.674 22.313 309.053C22.7121 307.24 23.181 305.681 23.7199 304.376C24.2587 303.071 24.9869 302.072 25.9046 301.378C26.7982 300.683 28.0127 300.358 29.5481 300.402C31.1075 300.446 32.3996 300.879 33.4246 301.701C34.4496 302.522 35.2081 303.636 35.7003 305.043C36.1684 306.448 36.3951 308.039 36.3802 309.815C36.3469 313.799 35.0828 317.183 32.588 319.969L30.5473 318.65C31.5146 317.766 32.3527 316.541 33.0616 314.977C33.7708 313.389 34.1335 311.623 34.1497 309.679C34.1666 307.663 33.808 306.069 33.0739 304.895C32.3399 303.722 31.2411 303.115 29.7777 303.073C28.7222 303.043 27.8801 303.307 27.2515 303.865C26.599 304.422 26.064 305.271 25.6465 306.411C25.2291 307.552 24.8214 308.956 24.4235 310.625C24.0008 312.39 23.5324 313.876 23.0184 315.086C22.5046 316.272 21.8372 317.165 21.0163 317.765C20.1955 318.366 19.0893 318.646 17.6979 318.607C16.1145 318.561 14.7863 318.139 13.7131 317.34C12.6162 316.517 11.7976 315.413 11.2572 314.029C10.6929 312.645 10.4182 311.065 10.433 309.289C10.4471 307.609 10.7236 306.105 11.2626 304.776C11.7777 303.446 12.5075 302.255 13.4522 301.202L15.4571 302.483ZM36.7022 288.529C36.687 290.353 36.2296 291.96 35.3301 293.35C34.4066 294.74 33.2098 295.822 31.7396 296.596C30.2454 297.37 28.6106 297.731 26.8353 297.68C25.0601 297.63 23.456 297.188 22.0232 296.355C20.5665 295.521 19.4122 294.383 18.5604 292.943C17.6846 291.501 17.2544 289.857 17.2699 288.009C17.2845 286.257 17.7052 284.733 18.5319 283.436C19.3348 282.115 20.4228 281.138 21.7958 280.505L22.5317 282.902C21.5676 283.403 20.8177 284.126 20.2819 285.07C19.7223 285.991 19.4377 287.027 19.4281 288.179C19.4174 289.451 19.7317 290.612 20.3708 291.662C21.0101 292.689 21.9029 293.53 23.0492 294.187C24.1717 294.82 25.4407 295.156 26.8561 295.196C28.2715 295.237 29.5576 294.962 30.7144 294.371C31.8711 293.78 32.8017 292.978 33.506 291.966C34.1864 290.953 34.5318 289.823 34.5422 288.575C34.549 287.759 34.4117 286.963 34.1302 286.187C33.8488 285.41 33.4704 284.74 32.9953 284.174C32.4961 283.607 31.9594 283.22 31.3853 283.012L32.1251 280.62C33.01 280.982 33.809 281.557 34.5223 282.345C35.2116 283.133 35.7557 284.061 36.1547 285.128C36.5298 286.195 36.7122 287.329 36.7022 288.529ZM19.9286 267.063C19.9629 268.696 20.4067 270.149 21.2599 271.422C22.1133 272.67 23.2936 273.568 24.8008 274.116L36.46 274.449L36.4395 276.897L17.6912 276.361L17.7105 274.057L22.2086 274.185C20.8946 273.5 19.8341 272.617 19.0273 271.538C18.2207 270.435 17.7744 269.282 17.6885 268.079C17.6665 267.838 17.6562 267.634 17.6576 267.466C17.659 267.298 17.6723 267.142 17.6975 266.999L19.9286 267.063ZM36.967 256.857C36.952 258.657 36.4947 260.253 35.5953 261.643C34.696 263.01 33.5113 264.068 32.0413 264.818C30.5473 265.568 28.9366 265.918 27.2093 265.868C25.4581 265.818 23.854 265.376 22.3972 264.542C20.9167 263.684 19.7384 262.546 18.8624 261.129C17.9626 259.686 17.5201 258.077 17.535 256.302C17.55 254.502 18.0192 252.919 18.9425 251.553C19.842 250.162 21.0387 249.092 22.5327 248.343C24.0029 247.569 25.6137 247.207 27.365 247.257C29.0923 247.306 30.6963 247.748 32.1771 248.583C33.6338 249.417 34.8001 250.554 35.6759 251.996C36.5519 253.413 36.9823 255.034 36.967 256.857ZM27.2661 263.385C28.6575 263.425 29.9315 263.162 31.0881 262.594C32.2208 262.003 33.1274 261.201 33.8077 260.188C34.4641 259.174 34.7975 258.044 34.8079 256.796C34.8184 255.548 34.492 254.398 33.8289 253.347C33.1658 252.296 32.2611 251.442 31.1148 250.785C29.9685 250.128 28.6997 249.78 27.3082 249.74C25.9168 249.7 24.6427 249.976 23.486 250.567C22.3292 251.158 21.4107 251.96 20.7303 252.972C20.0499 253.985 19.7045 255.115 19.6941 256.363C19.6839 257.587 20.0223 258.725 20.7094 259.777C21.3725 260.828 22.2772 261.682 23.4235 262.339C24.5698 262.996 25.8507 263.345 27.2661 263.385ZM10.451 242.57L10.4715 240.122L32.4945 240.752C33.4301 240.779 34.0432 240.64 34.3337 240.337C34.6244 240.009 34.7718 239.593 34.776 239.089C34.7796 238.657 34.7353 238.224 34.6429 237.789C34.5508 237.33 34.4579 236.955 34.3644 236.665L36.3472 236.289C36.5353 236.751 36.6865 237.319 36.8008 237.995C36.9154 238.646 36.9706 239.212 36.9666 239.692C36.9574 240.796 36.6261 241.674 35.9727 242.328C35.3196 242.957 34.4292 243.256 33.3017 243.224L10.451 242.57ZM10.5331 232.762L10.5535 230.314L32.5765 230.944C33.5121 230.971 34.1252 230.832 34.4157 230.528C34.7064 230.201 34.8538 229.785 34.858 229.281C34.8617 228.849 34.8173 228.415 34.7249 227.981C34.6328 227.522 34.5399 227.147 34.4464 226.856L36.4292 226.481C36.6173 226.943 36.7685 227.511 36.8829 228.186C36.9974 228.838 37.0527 229.404 37.0486 229.884C37.0394 230.987 36.7081 231.866 36.0548 232.52C35.4016 233.149 34.5113 233.448 33.3837 233.415L10.5331 232.762ZM13.7797 197.468L13.7035 206.575L37.022 207.242L37.0009 209.762L13.6825 209.095L13.6063 218.203L11.3752 218.139L11.5486 197.404L13.7797 197.468ZM37.5188 190.871C37.5038 192.671 37.0465 194.267 36.147 195.657C35.2478 197.024 34.0631 198.082 32.5931 198.832C31.0991 199.582 29.4884 199.932 27.7611 199.882C26.0098 199.832 24.4058 199.39 22.949 198.556C21.4685 197.698 20.2902 196.56 19.4142 195.143C18.5144 193.7 18.0719 192.092 18.0868 190.316C18.1018 188.516 18.571 186.933 19.4943 185.567C20.3937 184.176 21.5905 183.106 23.0845 182.357C24.5547 181.583 26.1655 181.221 27.9168 181.271C29.6441 181.32 31.2481 181.762 32.7289 182.597C34.1856 183.431 35.3519 184.568 36.2277 186.01C37.1037 187.427 37.5341 189.048 37.5188 190.871ZM27.8179 197.399C29.2093 197.439 30.4833 197.176 31.6399 196.608C32.7726 196.017 33.6792 195.215 34.3595 194.202C35.0159 193.188 35.3493 192.058 35.3597 190.81C35.3702 189.562 35.0438 188.412 34.3807 187.361C33.7176 186.31 32.8129 185.456 31.6666 184.799C30.5203 184.142 29.2514 183.794 27.86 183.754C26.4686 183.714 25.1945 183.99 24.0377 184.581C22.881 185.172 21.9624 185.974 21.2821 186.986C20.6017 187.999 20.2563 189.129 20.2459 190.377C20.2357 191.601 20.5741 192.739 21.2612 193.791C21.9243 194.842 22.829 195.696 23.9753 196.353C25.1216 197.01 26.4025 197.359 27.8179 197.399ZM14.1766 150.008L14.1004 159.116L37.4189 159.783L37.3978 162.303L14.0793 161.636L14.0032 170.744L11.7721 170.68L11.9455 149.944L14.1766 150.008ZM37.9157 143.412C37.9007 145.212 37.4434 146.807 36.5439 148.198C35.6446 149.564 34.46 150.623 32.99 151.373C31.4959 152.122 29.8853 152.472 28.158 152.423C26.4067 152.373 24.8027 151.931 23.3459 151.097C21.8653 150.239 20.6871 149.101 19.8111 147.683C18.9113 146.241 18.4688 144.632 18.4837 142.856C18.4987 141.056 18.9679 139.473 19.8911 138.108C20.7906 136.717 21.9874 135.647 23.4814 134.898C24.9516 134.123 26.5623 133.761 28.3136 133.812C30.0409 133.861 31.645 134.303 33.1257 135.137C34.5825 135.971 35.7488 137.109 36.6246 138.55C37.5006 139.968 37.931 141.588 37.9157 143.412ZM28.2148 149.94C29.6062 149.98 30.8802 149.716 32.0367 149.149C33.1695 148.557 34.076 147.755 34.7564 146.743C35.4128 145.729 35.7462 144.598 35.7566 143.35C35.767 142.102 35.4407 140.953 34.7776 139.902C34.1145 138.851 33.2098 137.996 32.0635 137.34C30.9172 136.683 29.6483 136.334 28.2569 136.294C26.8654 136.255 25.5914 136.53 24.4346 137.121C23.2779 137.712 22.3593 138.514 21.679 139.527C20.9986 140.54 20.6532 141.67 20.6428 142.918C20.6325 144.142 20.971 145.28 21.658 146.332C22.3211 147.383 23.2258 148.237 24.3722 148.894C25.5185 149.551 26.7993 149.9 28.2148 149.94ZM38.108 120.419C38.0949 121.979 37.6754 123.371 36.8493 124.596C36.0234 125.796 35.0076 126.739 33.8021 127.425L45.3534 127.756L45.3329 130.203L18.9197 129.448L18.9381 127.252L22.5726 127.356C21.4033 126.578 20.4639 125.567 19.7544 124.323C19.0212 123.053 18.6606 121.699 18.6726 120.259C18.6835 118.963 18.9693 117.783 19.5301 116.719C20.0669 115.654 20.7944 114.738 21.7127 113.973C22.6311 113.183 23.6799 112.589 24.8591 112.19C26.0142 111.791 27.2155 111.609 28.463 111.645C30.2143 111.695 31.8306 112.102 33.312 112.864C34.7696 113.602 35.9368 114.632 36.8136 115.953C37.6906 117.25 38.122 118.739 38.108 120.419ZM35.9431 121.041C35.9546 119.673 35.6046 118.487 34.8931 117.482C34.1578 116.453 33.2167 115.646 32.0698 115.061C30.9229 114.476 29.7137 114.165 28.4422 114.129C27.0988 114.091 25.8487 114.367 24.6919 114.958C23.5352 115.549 22.6045 116.363 21.9 117.399C21.1956 118.411 20.838 119.577 20.8269 120.897C20.8201 121.713 21.0288 122.583 21.453 123.507C21.8534 124.407 22.4105 125.215 23.1244 125.931C23.8145 126.623 24.5789 127.041 25.4175 127.185L31.1752 127.35C32.4993 126.836 33.622 126.004 34.5435 124.854C35.465 123.704 35.9315 122.433 35.9431 121.041Z" fill="black"/>
</g>
<path d="M31.6857 21L28.7583 25.9173L34.5294 26.0824L31.6857 21ZM31.4998 103.011L32.1478 25.5141L31.1483 25.4855L30.5002 102.983L31.4998 103.011Z" fill="black"/>
</g>
</g>
<defs>
<filter id="filter0_b" x="-4" y="-3.21722" width="74" height="339.217" filterUnits="userSpaceOnUse" color-interpolation-filters="sRGB">
<feFlood flood-opacity="0" result="BackgroundImageFix"/>
<feGaussianBlur in="BackgroundImage" stdDeviation="2"/>
<feComposite in2="SourceAlpha" operator="in" result="effect1_backgroundBlur"/>
<feBlend mode="normal" in="SourceGraphic" in2="effect1_backgroundBlur" result="shape"/>
</filter>
<filter id="filter1_d" x="6.43246" y="111.641" width="42.9209" height="216.328" filterUnits="userSpaceOnUse" color-interpolation-filters="sRGB">
<feFlood flood-opacity="0" result="BackgroundImageFix"/>
<feColorMatrix in="SourceAlpha" type="matrix" values="0 0 0 0 0 0 0 0 0 0 0 0 0 0 0 0 0 0 127 0"/>
<feOffset dy="4"/>
<feGaussianBlur stdDeviation="2"/>
<feColorMatrix type="matrix" values="0 0 0 0 0 0 0 0 0 0 0 0 0 0 0 0 0 0 0.25 0"/>
<feBlend mode="normal" in2="BackgroundImageFix" result="effect1_dropShadow"/>
<feBlend mode="normal" in="SourceGraphic" in2="effect1_dropShadow" result="shape"/>
</filter>
<clipPath id="clip0">
<rect width="329.419" height="63.2713" fill="white" transform="matrix(0.00836194 -0.999965 0.999591 0.028595 0 330.191)"/>
</clipPath>
</defs>
</svg>
